HIERARCHY
ROOT Hips
{
	OFFSET 0.000000 85.232368 0.000000
	CHANNELS 6 Xposition Yposition Zposition Xrotation Yrotation Zrotation
	JOINT Pelvis
	{
		OFFSET 0.000000 0.000000 0.000000
		CHANNELS 3 Xrotation Yrotation Zrotation
		JOINT LeftUpLeg
		{
			OFFSET 8.267000 -7.995499 -0.379100
			CHANNELS 3 Xrotation Yrotation Zrotation
			JOINT LeftLeg
			{
				OFFSET 0.054240 -32.386696 0.044000
				CHANNELS 3 Xrotation Yrotation Zrotation
				JOINT LeftFoot
				{
					OFFSET -0.054240 -34.994774 -2.162700
					CHANNELS 3 Xrotation Yrotation Zrotation
					JOINT LeftToeBase
					{
						OFFSET 1.183800 -9.853600 10.917900
						CHANNELS 3 Xrotation Yrotation Zrotation
						End Site
						{
							OFFSET 0.000000 14.754502 0.000000
						}
					}
				}
			}
		}
		JOINT RightUpLeg
		{
			OFFSET -8.267000 -7.995499 -0.379100
			CHANNELS 3 Xrotation Yrotation Zrotation
			JOINT RightLeg
			{
				OFFSET -0.070950 -32.386684 0.038000
				CHANNELS 3 Xrotation Yrotation Zrotation
				JOINT RightFoot
				{
					OFFSET 0.070950 -34.994778 -2.156200
					CHANNELS 3 Xrotation Yrotation Zrotation
					JOINT RightToeBase
					{
						OFFSET -1.183800 -9.853600 10.917900
						CHANNELS 3 Xrotation Yrotation Zrotation
						End Site
						{
							OFFSET 0.000000 14.754502 0.000000
						}
					}
				}
			}
		}
	}
	JOINT Spine
	{
		OFFSET 0.000000 7.868599 1.166200
		CHANNELS 3 Xrotation Yrotation Zrotation
		JOINT Spine1
		{
			OFFSET 0.000000 8.307800 0.248800
			CHANNELS 3 Xrotation Yrotation Zrotation
			JOINT Spine2
			{
				OFFSET 0.000000 7.482399 -0.491200
				CHANNELS 3 Xrotation Yrotation Zrotation
				JOINT Neck
				{
					OFFSET 0.000000 21.684303 -3.123100
					CHANNELS 3 Xrotation Yrotation Zrotation
					JOINT Head
					{
						OFFSET 0.000000 8.913803 1.034000
						CHANNELS 3 Xrotation Yrotation Zrotation
						JOINT Bow_Left
						{
							OFFSET -6.807600 33.579102 20.746500
							CHANNELS 3 Xrotation Yrotation Zrotation
							End Site
							{
								OFFSET 0.000000 36.852737 0.000000
							}
						}
						JOINT Bow_Right
						{
							OFFSET -11.133100 30.306305 19.494801
							CHANNELS 3 Xrotation Yrotation Zrotation
							End Site
							{
								OFFSET 0.000000 36.852737 0.000000
							}
						}
						JOINT HairA
						{
							OFFSET -11.484100 27.488907 17.492701
							CHANNELS 3 Xrotation Yrotation Zrotation
							End Site
							{
								OFFSET 0.000000 36.852753 0.000000
							}
						}
						JOINT HairB
						{
							OFFSET -6.414200 28.763596 21.702101
							CHANNELS 3 Xrotation Yrotation Zrotation
							End Site
							{
								OFFSET 0.000000 36.852753 0.000000
							}
						}
						JOINT HairC
						{
							OFFSET 2.525900 31.951599 20.602400
							CHANNELS 3 Xrotation Yrotation Zrotation
							JOINT HairC1
							{
								OFFSET 1.739400 -3.174103 3.680700
								CHANNELS 3 Xrotation Yrotation Zrotation
								End Site
								{
									OFFSET 0.000000 5.162170 0.000000
								}
							}
						}
						JOINT Ponytail
						{
							OFFSET -0.181100 31.341095 -13.433300
							CHANNELS 3 Xrotation Yrotation Zrotation
							JOINT Ponytail1
							{
								OFFSET -0.652100 2.580795 -7.351699
								CHANNELS 3 Xrotation Yrotation Zrotation
								JOINT Ponytail2
								{
									OFFSET -1.520600 -11.288803 -7.114201
									CHANNELS 3 Xrotation Yrotation Zrotation
									End Site
									{
										OFFSET 0.000000 13.429855 0.000000
									}
								}
							}
						}
					}
				}
				JOINT LeftShoulder
				{
					OFFSET 4.215800 16.554398 -4.064700
					CHANNELS 3 Xrotation Yrotation Zrotation
					JOINT LeftArm
					{
						OFFSET 8.527100 -0.250801 -1.709300
						CHANNELS 3 Xrotation Yrotation Zrotation
						JOINT LeftForeArm
						{
							OFFSET 21.280577 0.000000 0.000000
							CHANNELS 3 Xrotation Yrotation Zrotation
							JOINT LeftHand
							{
								OFFSET 21.084167 0.000000 0.000000
								CHANNELS 3 Xrotation Yrotation Zrotation
								JOINT LeftHandThumb1
								{
									OFFSET 4.156902 -1.974739 2.603903
									CHANNELS 3 Xrotation Yrotation Zrotation
									JOINT LeftHandThumb2
									{
										OFFSET 3.101337 -1.790558 1.790558
										CHANNELS 3 Xrotation Yrotation Zrotation
										JOINT LeftHandThumb3
										{
											OFFSET 3.058640 -1.765907 1.765906
											CHANNELS 3 Xrotation Yrotation Zrotation
											End Site
											{
												OFFSET -0.508484 3.914536 0.099958
											}
										}
									}
								}
								JOINT LeftHandIndex1
								{
									OFFSET 11.891159 -0.685638 3.728940
									CHANNELS 3 Xrotation Yrotation Zrotation
									JOINT LeftHandIndex2
									{
										OFFSET 3.283112 0.000000 0.000000
										CHANNELS 3 Xrotation Yrotation Zrotation
										JOINT LeftHandIndex3
										{
											OFFSET 3.323853 0.000000 0.000000
											CHANNELS 3 Xrotation Yrotation Zrotation
											End Site
											{
												OFFSET -1.135597 3.090645 0.454245
											}
										}
									}
								}
								JOINT LeftHandMiddle1
								{
									OFFSET 12.129349 0.000000 0.000000
									CHANNELS 3 Xrotation Yrotation Zrotation
									JOINT LeftHandMiddle2
									{
										OFFSET 3.410492 0.000000 0.000000
										CHANNELS 3 Xrotation Yrotation Zrotation
										JOINT LeftHandMiddle3
										{
											OFFSET 3.312172 0.000000 0.000000
											CHANNELS 3 Xrotation Yrotation Zrotation
											End Site
											{
												OFFSET -1.150200 3.071854 0.459684
											}
										}
									}
								}
								JOINT LeftHandRing1
								{
									OFFSET 12.519501 0.089500 -2.972870
									CHANNELS 3 Xrotation Yrotation Zrotation
									JOINT LeftHandRing2
									{
										OFFSET 3.053307 0.000000 0.000000
										CHANNELS 3 Xrotation Yrotation Zrotation
										JOINT LeftHandRing3
										{
											OFFSET 3.295807 0.000000 0.000000
											CHANNELS 3 Xrotation Yrotation Zrotation
											End Site
											{
												OFFSET -1.281006 3.004524 0.440718
											}
										}
									}
								}
								JOINT LeftHandPinky1
								{
									OFFSET 11.743073 -0.777466 -5.760851
									CHANNELS 3 Xrotation Yrotation Zrotation
									JOINT LeftHandPinky2
									{
										OFFSET 2.861649 0.000000 0.000000
										CHANNELS 3 Xrotation Yrotation Zrotation
										JOINT LeftHandPinky3
										{
											OFFSET 2.863380 0.000000 0.000000
											CHANNELS 3 Xrotation Yrotation Zrotation
											End Site
											{
												OFFSET -0.843597 2.702866 0.426379
											}
										}
									}
								}
							}
							JOINT LeftWristTwist
							{
								OFFSET 10.542084 0.000000 0.000000
								CHANNELS 3 Xrotation Yrotation Zrotation
								End Site
								{
									OFFSET 0.000000 15.813126 0.000000
								}
							}
						}
						JOINT LeftUpArmTwist
						{
							OFFSET 10.640240 0.000000 -0.000003
							CHANNELS 3 Xrotation Yrotation Zrotation
							End Site
							{
								OFFSET 0.000000 10.640274 0.000000
							}
						}
						JOINT LeftUpArmCounterTwist
						{
							OFFSET 0.000000 0.000000 0.000000
							CHANNELS 3 Xrotation Yrotation Zrotation
							End Site
							{
								OFFSET 0.000000 10.640274 0.000000
							}
						}
					}
				}
				JOINT RightShoulder
				{
					OFFSET -4.215800 16.554398 -4.064700
					CHANNELS 3 Xrotation Yrotation Zrotation
					JOINT RightArm
					{
						OFFSET -8.527100 -0.250801 -1.709300
						CHANNELS 3 Xrotation Yrotation Zrotation
						JOINT RightForeArm
						{
							OFFSET -21.280577 0.000000 0.000000
							CHANNELS 3 Xrotation Yrotation Zrotation
							JOINT RightHand
							{
								OFFSET -21.084167 0.000000 0.000000
								CHANNELS 3 Xrotation Yrotation Zrotation
								JOINT RightHandThumb1
								{
									OFFSET -4.156902 -1.974739 2.603903
									CHANNELS 3 Xrotation Yrotation Zrotation
									JOINT RightHandThumb2
									{
										OFFSET -3.101337 -1.790558 1.790558
										CHANNELS 3 Xrotation Yrotation Zrotation
										JOINT RightHandThumb3
										{
											OFFSET -3.058640 -1.765907 1.765906
											CHANNELS 3 Xrotation Yrotation Zrotation
											End Site
											{
												OFFSET 0.508484 3.914536 0.099958
											}
										}
									}
								}
								JOINT RightHandIndex1
								{
									OFFSET -11.891159 -0.685638 3.728940
									CHANNELS 3 Xrotation Yrotation Zrotation
									JOINT RightHandIndex2
									{
										OFFSET -3.283112 0.000000 0.000000
										CHANNELS 3 Xrotation Yrotation Zrotation
										JOINT RightHandIndex3
										{
											OFFSET -3.323853 0.000000 0.000000
											CHANNELS 3 Xrotation Yrotation Zrotation
											End Site
											{
												OFFSET 1.135597 3.090645 0.454245
											}
										}
									}
								}
								JOINT RightHandMiddle1
								{
									OFFSET -12.129349 0.000000 0.000000
									CHANNELS 3 Xrotation Yrotation Zrotation
									JOINT RightHandMiddle2
									{
										OFFSET -3.410492 0.000000 0.000000
										CHANNELS 3 Xrotation Yrotation Zrotation
										JOINT RightHandMiddle3
										{
											OFFSET -3.312172 0.000000 0.000000
											CHANNELS 3 Xrotation Yrotation Zrotation
											End Site
											{
												OFFSET 1.150200 3.071854 0.459684
											}
										}
									}
								}
								JOINT RightHandRing1
								{
									OFFSET -12.519501 0.089500 -2.972870
									CHANNELS 3 Xrotation Yrotation Zrotation
									JOINT RightHandRing2
									{
										OFFSET -3.053307 0.000000 0.000000
										CHANNELS 3 Xrotation Yrotation Zrotation
										JOINT RightHandRing3
										{
											OFFSET -3.295807 0.000000 0.000000
											CHANNELS 3 Xrotation Yrotation Zrotation
											End Site
											{
												OFFSET 1.281006 3.004524 0.440718
											}
										}
									}
								}
								JOINT RightHandPinky1
								{
									OFFSET -11.743073 -0.777466 -5.760851
									CHANNELS 3 Xrotation Yrotation Zrotation
									JOINT RightHandPinky2
									{
										OFFSET -2.861649 0.000000 0.000000
										CHANNELS 3 Xrotation Yrotation Zrotation
										JOINT RightHandPinky3
										{
											OFFSET -2.863380 0.000000 0.000000
											CHANNELS 3 Xrotation Yrotation Zrotation
											End Site
											{
												OFFSET 0.843597 2.702866 0.426379
											}
										}
									}
								}
							}
							JOINT RightWristTwist
							{
								OFFSET -10.542084 0.000000 0.000000
								CHANNELS 3 Xrotation Yrotation Zrotation
								End Site
								{
									OFFSET 0.000000 15.813126 0.000000
								}
							}
						}
						JOINT RightUpArmTwist
						{
							OFFSET -10.639141 -0.110298 -0.000072
							CHANNELS 3 Xrotation Yrotation Zrotation
							End Site
							{
								OFFSET 0.000000 10.640099 0.000000
							}
						}
						JOINT RightUpArmCounterTwist
						{
							OFFSET 0.000000 0.000000 0.000000
							CHANNELS 3 Xrotation Yrotation Zrotation
							End Site
							{
								OFFSET 0.000000 10.640091 0.000000
							}
						}
					}
				}
				JOINT Left_Breast
				{
					OFFSET 2.562200 12.196404 5.128100
					CHANNELS 3 Xrotation Yrotation Zrotation
					End Site
					{
						OFFSET 0.000000 16.796066 0.000000
					}
				}
				JOINT Right_Breast
				{
					OFFSET -2.562200 12.196404 5.128100
					CHANNELS 3 Xrotation Yrotation Zrotation
					End Site
					{
						OFFSET 0.000000 16.796066 0.000000
					}
				}
			}
		}
		JOINT Belly
		{
			OFFSET 0.000000 -0.538597 3.357800
			CHANNELS 3 Xrotation Yrotation Zrotation
			End Site
			{
				OFFSET 0.000000 5.856125 0.000000
			}
		}
	}
	JOINT SkirtA
	{
		OFFSET 11.243100 1.931297 -10.868500
		CHANNELS 3 Xrotation Yrotation Zrotation
		JOINT SkirtA1
		{
			OFFSET 2.029201 -7.806297 -3.695200
			CHANNELS 3 Xrotation Yrotation Zrotation
			End Site
			{
				OFFSET 0.000000 8.871895 0.000000
			}
		}
	}
	JOINT SkirtC
	{
		OFFSET -11.243100 1.931297 -10.868500
		CHANNELS 3 Xrotation Yrotation Zrotation
		JOINT SkirtC1
		{
			OFFSET -2.029201 -7.806297 -3.695200
			CHANNELS 3 Xrotation Yrotation Zrotation
			End Site
			{
				OFFSET 0.000000 8.871895 0.000000
			}
		}
	}
	JOINT SkirtB
	{
		OFFSET 0.000000 4.335800 -15.692000
		CHANNELS 3 Xrotation Yrotation Zrotation
		JOINT SkirtB1
		{
			OFFSET 0.000000 -9.653404 -3.351201
			CHANNELS 3 Xrotation Yrotation Zrotation
			End Site
			{
				OFFSET 0.000000 10.218544 0.000000
			}
		}
	}
	JOINT Girl01FacialAnim_Joint
	{
		OFFSET 1.000000 -84.230202 -1.550900
		CHANNELS 3 Xrotation Yrotation Zrotation
		End Site
		{
			OFFSET 0.000000 23.332932 0.000000
		}
	}
}
MOTION
Frames: 4
Frame Time: 0.016667
11.917654 81.697350 52.107216 170.681988 16.182765 -174.163321 -0.000001 0.000002 -0.000000 -38.553334 4.509403 -10.683615 52.826025 16.439546 1.026997 -9.453205 0.365736 12.206888 0.000001 -0.000000 0.000000 -26.021057 -44.517558 -5.639107 29.255807 -0.412266 -21.004106 -18.608943 -2.364563 11.724768 0.000000 0.000000 -0.000000 1.599077 -0.108604 -0.684179 3.193035 -0.371042 -2.085584 3.193041 -0.371043 -2.085583 -3.106566 1.903276 0.923157 -6.403976 9.694896 -9.492039 0.000001 0.000001 0.000001 0.000001 0.000001 0.000001 0.000001 0.000001 0.000001 0.000001 0.000001 0.000001 0.000001 0.000001 0.000001 0.000001 0.000001 0.000001 0.000001 0.000001 0.000001 0.000001 0.000001 0.000001 0.000001 0.000001 0.000001 0.589958 -3.424980 -10.772171 11.925517 -3.703035 -74.560483 15.460760 -20.029921 5.635581 -5.994564 -12.331071 -0.164772 25.111249 -2.687262 20.499102 9.304977 24.441163 -0.847867 0.000001 -0.000000 0.000002 0.599996 6.911494 -23.883857 2.733475 1.542658 -36.765993 -0.000002 -0.000005 0.000000 0.976163 7.422046 -32.221704 5.809209 1.256770 -45.781153 -0.000000 0.000004 -0.000001 -1.227805 6.340740 -44.477861 7.491179 2.055263 -50.574450 0.000001 -0.000001 -0.000001 -5.698662 1.174835 -43.952739 10.001151 3.459251 -50.341961 0.000002 -0.000002 -0.000002 -0.000002 0.000000 -0.000000 0.000002 -0.000002 0.000000 0.000002 -0.000002 0.000000 0.522966 4.211149 19.586220 2.696599 -13.981220 60.673766 -19.032413 15.367639 5.830102 -3.362591 5.913694 -29.905635 3.824830 -12.345958 -1.042566 4.523887 -9.504797 0.488643 -0.000005 -0.000002 -0.000002 3.545369 -9.668647 69.326721 8.886355 -3.241692 112.372567 -0.000000 -0.000001 -0.000003 5.660012 -9.815673 93.151718 8.809070 -2.682466 83.366297 0.000001 -0.000002 0.000001 4.831737 -12.380556 97.852521 10.912801 -3.225641 91.663495 -0.000003 -0.000001 0.000001 0.269986 -10.740408 93.149778 10.737845 -3.968359 60.274323 0.000001 -0.000001 0.000001 -0.000000 0.000000 -0.000000 -0.000000 -0.000002 -0.000001 -0.000000 -0.000002 -0.000001 -0.000000 0.000002 -0.000000 -0.000000 0.000002 -0.000000 0.000001 0.000001 -0.000000 -0.000001 0.000002 -0.000000 -0.000001 0.000002 -0.000000 -0.000001 0.000002 -0.000000 -0.000001 0.000002 -0.000000 -0.000001 0.000002 -0.000000 -0.000001 0.000002 -0.000000 -0.000001 0.000002 -0.000000 
12.196564 81.706902 51.721821 170.665650 14.826592 -173.890210 -0.000000 -0.000000 -0.000000 -39.651273 4.535413 -10.967526 51.358887 17.857977 1.030430 -8.173085 0.915903 11.407341 -0.000001 -0.000000 -0.000001 -26.591243 -46.381697 -7.207983 29.602064 0.982248 -20.769350 -19.379299 -2.298144 11.407618 -0.000000 -0.000000 0.000000 1.621025 -0.060483 -0.818696 3.238061 -0.289680 -2.305683 3.238061 -0.289678 -2.305684 -3.098873 1.875920 0.756975 -6.614254 9.430318 -8.975815 -0.000000 -0.000000 0.000000 -0.000000 -0.000000 0.000000 -0.000000 -0.000000 0.000000 -0.000000 -0.000000 0.000000 -0.000000 -0.000000 0.000000 -0.000000 -0.000000 0.000000 -0.000000 -0.000000 0.000000 -0.000000 -0.000000 0.000000 -0.000000 -0.000000 0.000000 0.593592 -3.149152 -11.126612 12.107997 -3.502429 -74.344007 16.689154 -19.403333 5.931231 -6.014718 -12.760452 -0.019355 25.111250 -2.687264 20.499105 9.304972 24.441164 -0.847865 -0.000001 0.000004 0.000001 0.600000 6.911494 -23.883857 2.733475 1.542658 -36.765993 0.000000 -0.000003 0.000001 0.976159 7.422046 -32.221708 5.809214 1.256769 -45.781146 -0.000000 0.000002 0.000002 -1.227808 6.340739 -44.477864 7.491188 2.055274 -50.574443 -0.000001 0.000003 -0.000004 -5.698670 1.174836 -43.952742 10.001154 3.459252 -50.341967 0.000004 -0.000003 0.000001 -0.000000 0.000000 -0.000001 0.000001 0.000000 -0.000001 0.000001 0.000000 -0.000001 0.479000 4.759468 19.299261 2.562907 -14.039422 60.649327 -18.515234 15.288385 5.950524 -3.585228 5.905981 -29.511420 3.824826 -12.345954 -1.042569 4.523886 -9.504796 0.488633 -0.000002 -0.000002 0.000001 3.545370 -9.668642 69.326707 8.886354 -3.241691 112.372574 -0.000002 0.000003 0.000003 5.660010 -9.815668 93.151718 8.809072 -2.682465 83.366297 0.000002 0.000000 -0.000002 4.831734 -12.380554 97.852521 10.912797 -3.225642 91.663502 -0.000001 0.000004 0.000000 0.269985 -10.740401 93.149772 10.737841 -3.968360 60.274323 0.000000 0.000001 -0.000000 0.000004 -0.000000 0.000000 -0.000002 0.000001 0.000000 -0.000002 0.000001 0.000000 -0.000001 0.000001 -0.000000 -0.000001 0.000001 -0.000000 -0.000000 -0.000001 -0.000000 -0.000000 -0.000000 -0.000000 -0.000000 -0.000000 -0.000000 -0.000000 -0.000000 -0.000000 -0.000000 -0.000000 -0.000000 -0.000000 -0.000000 -0.000000 -0.000000 -0.000000 -0.000000 -0.000000 -0.000000 -0.000000 
12.477173 81.701355 51.260479 170.500264 13.606769 -173.585433 0.000000 -0.000000 -0.000000 -40.864762 4.422744 -11.207777 49.723217 18.780227 1.058386 -6.584577 1.354321 10.556619 0.000000 0.000000 0.000001 -27.235900 -47.984866 -8.747941 29.903760 2.322811 -20.478652 -20.152183 -2.252482 11.252351 0.000000 -0.000000 -0.000000 1.597811 -0.028696 -0.950489 3.192300 -0.239236 -2.517723 3.192298 -0.239235 -2.517723 -3.105492 1.880133 0.591565 -6.726998 9.254849 -8.472985 -0.000001 0.000000 0.000001 -0.000001 0.000000 0.000001 -0.000001 0.000000 0.000001 -0.000001 0.000000 0.000001 -0.000001 0.000000 0.000001 -0.000001 0.000000 0.000001 -0.000001 0.000000 0.000001 -0.000001 0.000000 0.000001 -0.000001 0.000000 0.000001 0.598399 -2.856968 -11.394509 12.188871 -3.254284 -74.195921 18.195096 -18.393278 6.189219 -6.079125 -13.297675 -0.148015 25.111249 -2.687264 20.499105 9.304974 24.441163 -0.847868 -0.000000 -0.000000 0.000001 0.599994 6.911495 -23.883857 2.733476 1.542659 -36.765993 -0.000002 -0.000002 0.000003 0.976158 7.422047 -32.221708 5.809209 1.256769 -45.781153 0.000000 -0.000003 0.000003 -1.227804 6.340740 -44.477861 7.491182 2.055273 -50.574446 -0.000000 0.000001 -0.000003 -5.698665 1.174837 -43.952739 10.001156 3.459255 -50.341954 0.000001 -0.000002 -0.000002 0.000000 -0.000000 0.000000 0.000001 -0.000001 0.000000 0.000001 -0.000001 0.000000 0.435793 5.330392 19.010035 2.576022 -14.091281 60.643781 -17.868251 15.472257 6.017932 -3.854912 5.717811 -29.030322 3.824830 -12.345961 -1.042560 4.523884 -9.504799 0.488639 0.000003 -0.000002 0.000006 3.545371 -9.668648 69.326707 8.886353 -3.241691 112.372574 -0.000000 -0.000002 -0.000002 5.660010 -9.815679 93.151718 8.809073 -2.682465 83.366297 -0.000001 -0.000001 -0.000002 4.831735 -12.380562 97.852528 10.912799 -3.225646 91.663502 -0.000000 0.000001 0.000003 0.269988 -10.740408 93.149778 10.737843 -3.968361 60.274329 -0.000001 -0.000001 -0.000002 0.000002 0.000001 0.000000 -0.000001 0.000000 0.000000 -0.000001 0.000000 0.000000 0.000001 0.000001 0.000000 0.000001 0.000001 0.000000 -0.000001 -0.000000 0.000001 0.000000 -0.000000 -0.000000 0.000000 -0.000000 -0.000000 0.000000 -0.000000 -0.000000 0.000000 -0.000000 -0.000000 0.000000 -0.000000 -0.000000 0.000000 -0.000000 -0.000000 0.000000 -0.000000 -0.000000 
12.767664 81.677917 50.707977 170.133578 12.479702 -173.240522 0.000000 0.000000 -0.000000 -42.217386 4.167241 -11.415126 47.924111 19.307750 1.084842 -4.785727 1.656952 9.493781 0.000000 -0.000000 -0.000000 -28.115227 -49.421377 -10.269338 30.252513 3.596430 -20.253077 -20.810080 -2.176089 11.055192 -0.000000 -0.000000 0.000000 1.514615 -0.018868 -1.080296 3.025948 -0.229817 -2.721199 3.025960 -0.229812 -2.721201 -3.171302 1.900561 0.447723 -6.687579 9.142473 -8.002323 0.000001 -0.000000 -0.000000 0.000001 -0.000000 -0.000000 0.000001 -0.000000 -0.000000 0.000001 -0.000000 -0.000000 0.000001 -0.000000 -0.000000 0.000001 -0.000000 -0.000000 0.000001 -0.000000 -0.000000 0.000001 -0.000000 -0.000000 0.000001 -0.000000 -0.000000 0.604001 -2.532148 -11.575477 12.194103 -2.978930 -74.101173 19.824872 -17.114699 6.352084 -6.185762 -13.903236 -0.535132 25.111249 -2.687264 20.499107 9.304972 24.441164 -0.847864 -0.000001 -0.000000 0.000001 0.599995 6.911495 -23.883858 2.733474 1.542661 -36.765996 0.000000 -0.000002 0.000001 0.976156 7.422047 -32.221708 5.809214 1.256770 -45.781149 -0.000001 0.000003 0.000002 -1.227800 6.340740 -44.477861 7.491182 2.055269 -50.574446 0.000001 -0.000004 -0.000000 -5.698667 1.174838 -43.952735 10.001155 3.459250 -50.341957 0.000001 0.000002 -0.000001 0.000003 -0.000001 0.000001 -0.000001 -0.000001 0.000001 -0.000001 -0.000001 0.000001 0.392376 5.929743 18.726043 2.703890 -14.176576 60.696838 -17.137908 15.854870 5.978289 -4.122292 5.364160 -28.528119 3.824827 -12.345962 -1.042563 4.523888 -9.504801 0.488640 0.000004 0.000000 -0.000000 3.545369 -9.668650 69.326707 8.886351 -3.241692 112.372574 0.000000 0.000000 0.000001 5.660007 -9.815677 93.151718 8.809074 -2.682469 83.366297 0.000003 0.000002 0.000000 4.831733 -12.380560 97.852521 10.912801 -3.225646 91.663495 0.000003 0.000001 0.000001 0.269983 -10.740408 93.149785 10.737845 -3.968361 60.274323 0.000001 0.000004 0.000001 -0.000003 0.000000 0.000000 -0.000001 0.000001 0.000000 -0.000001 0.000001 0.000000 -0.000001 -0.000000 -0.000000 -0.000001 -0.000000 -0.000000 0.000001 0.000001 -0.000000 0.000000 0.000000 -0.000000 -0.000000 0.000000 -0.000000 0.000000 0.000000 -0.000000 -0.000000 0.000000 -0.000000 0.000000 0.000000 -0.000000 0.000000 0.000000 -0.000000 0.000000 0.000000 -0.000000 
